<svg preserveAspectRatio="none" width="100%" height="100%" overflow="visible" style="display: block;" viewBox="0 0 36 36" fill="none" xmlns="http://www.w3.org/2000/svg">
<g id="chat-round-unread-svgrepo-com 1">
<path id="Vector" d="M33 7.5C33 9.98528 30.9853 12 28.5 12C26.0146 12 24 9.98528 24 7.5C24 5.01473 26.0146 3 28.5 3C30.9853 3 33 5.01473 33 7.5Z" fill="var(--fill-0, #00A63B)"/>
<path id="Vector_2" d="M22.852 3.80214C21.3301 3.28215 19.698 3 18 3C9.71572 3 3 9.71572 3 18C3 20.3995 3.56343 22.6674 4.56519 24.6787C4.83141 25.2132 4.92002 25.8241 4.76568 26.4009L3.87227 29.74C3.48443 31.1895 4.81052 32.5155 6.26002 32.1277L9.59907 31.2343C10.1759 31.08 10.7868 31.1686 11.3213 31.4347C13.3325 32.4366 15.6004 33 18 33C26.2842 33 33 26.2842 33 18C33 16.302 32.7178 14.6698 32.1978 13.1479C31.1358 13.8447 29.8651 14.25 28.5 14.25C24.772 14.25 21.75 11.2279 21.75 7.5C21.75 6.13481 22.1553 4.86426 22.852 3.80214Z" fill="url(#paint0_radial_567_883)"/>
</g>
<defs>
<radialGradient id="paint0_radial_567_883" cx="0" cy="0" r="1" gradientTransform="matrix(-72.8636 94.05 78.499 66.4021 33.3001 -10.3523)" gradientUnits="userSpaceOnUse">
<stop stop-color="#006DFF"/>
<stop offset="0.232513" stop-color="#006DFF"/>
<stop offset="0.450744" stop-color="#D4E7FF"/>
<stop offset="0.615564" stop-color="#3C8FFF"/>
<stop offset="0.766102" stop-color="#59A0FF"/>
<stop offset="1" stop-color="#3C8FFF"/>
</radialGradient>
</defs>
</svg>
